<svg id="Layer_1" data-name="Layer 1" xmlns="http://www.w3.org/2000/svg" viewBox="0 0 100 100"><defs><style>.cls-1{fill:#fff;}</style></defs><path d="M96.87,30.24a31.86222,31.86222,0,0,0-5.7-7.12q-.3-.3-.63-.6a39.24912,39.24912,0,0,0-9.33-6.33c-11.96-5.8-26.49-5.62-43.17.56C2.34,29.97,4,60.55,4.27,63.68v.01C3.64,65.98,0,79.82,0,86.6a1.43613,1.43613,0,0,0,1.43,1.43A1.434,1.434,0,0,0,2.85,86.6c0-6.05,3.26-18.75,4.06-21.79a55.345,55.345,0,0,1,35.45-2.54A1.442,1.442,0,0,0,44,61.71a1.42723,1.42723,0,0,0-.1-1.73c-4.89-5.71-5.31-10.29-4.91-12.94,3.16,3.32,8.94,5.62,9.74,5.92a1.4121,1.4121,0,0,0,1.79-.7C61.17,30.51,77.24,31.62,83.66,33.11,90.46,34.68,95.08,38.46,95.58,40.57,94.75,41.78,91.97,45.44,88.66,45.44h-.1c-2.53-.06-5.01-2.28-7.38-6.62a1.439,1.439,0,0,0-2.27-.33c-.2.2-4.87994,4.96-3.2,10.03a1.43408,1.43408,0,0,0,2.72-.91c-.69-2.04.37-4.21,1.31-5.61,2.64,4.11,5.58,6.24,8.76,6.29,3.93.1,7.07-3.04,8.64-5.02-.09,4.34-1.4,8.35-3.87,10.72-2.8,2.71-6.67,2.7-11.19-.02a1.43033,1.43033,0,1,0-1.46,2.46c7.64,4.58,12.45,1.73,14.63-.39C100.88,50.61,101.62,38.79,96.87,30.24Zm-12.56.08C77.34,28.71,60.11,27.46,48.55,49.81c-3.34-1.47-7.87-4.13-8.66-6.48a1.40365,1.40365,0,0,0-1.2-.96,1.4187,1.4187,0,0,0-1.38.69c-.17.28-3.8,6.56,1.97,15.51A59.04238,59.04238,0,0,0,6.99,61.69c-.2-6.96,1.43-30.92,32.04-42.26A65.90161,65.90161,0,0,1,61.9,14.9a39.766,39.766,0,0,1,20.84,5.45A65.55619,65.55619,0,0,0,53.83,21a1.44393,1.44393,0,0,0-.97,1.77,1.4199,1.4199,0,0,0,1.77.97c.18-.04,16.7-4.72,34.24,1.2a29.39046,29.39046,0,0,1,5.51,6.7A21.04162,21.04162,0,0,1,96.34,36.58C93.84,33.92,89.39,31.49,84.31,30.32Z"/><path class="cls-1" d="M94.38,31.64a29.39046,29.39046,0,0,0-5.51-6.7c-17.54-5.92-34.06-1.24-34.24-1.2a1.4199,1.4199,0,0,1-1.77-.97A1.44393,1.44393,0,0,1,53.83,21a65.55619,65.55619,0,0,1,28.91-.65A39.766,39.766,0,0,0,61.9,14.9a65.90161,65.90161,0,0,0-22.87,4.53C8.42,30.77,6.79,54.73,6.99,61.69a59.04238,59.04238,0,0,1,32.29-3.12c-5.77-8.95-2.14-15.23-1.97-15.51a1.4187,1.4187,0,0,1,1.38-.69,1.40365,1.40365,0,0,1,1.2.96c.79,2.35,5.32,5.01,8.66,6.48,11.56-22.35,28.79-21.1,35.76-19.49,5.08,1.17,9.53,3.6,12.03,6.26A21.04162,21.04162,0,0,0,94.38,31.64Zm-45.36-6.5C22.8,34.8,12.79,54.22,12.69,54.41a1.42436,1.42436,0,1,1-2.55-1.27c.42-.84,10.56-20.61,37.89-30.68A1.42854,1.42854,0,0,1,49.02,25.14Z"/><path d="M49.02,25.14C22.8,34.8,12.79,54.22,12.69,54.41a1.42436,1.42436,0,1,1-2.55-1.27c.42-.84,10.56-20.61,37.89-30.68A1.42854,1.42854,0,0,1,49.02,25.14Z"/></svg>